<svg width="35" height="35" viewBox="0 0 35 35" fill="none" xmlns="http://www.w3.org/2000/svg">
<path d="M33.9768 3.69052C33.6381 2.40625 32.629 1.39718 31.3448 1.05141C29.6583 0.599798 27.0262 0.0635081 23.9496 0L35 11.0645C34.9436 7.99496 34.4214 5.37702 33.9768 3.69052ZM1.02319 31.3095C1.3619 32.5938 2.37097 33.6028 3.65524 33.9486C5.34173 34.4002 7.97379 34.9365 11.0504 35L0 23.9355C0.0564516 27.005 0.578629 29.623 1.02319 31.3095ZM0.296371 19.4335L15.5524 34.7177C24.9022 33.3488 33.1089 26.3417 34.7107 15.5665L19.4476 0.282258C10.0978 1.65121 1.89113 8.65827 0.296371 19.4335ZM22.6865 10.7117C22.9052 10.4929 23.2651 10.4929 23.4839 10.7117L24.2812 11.5091C24.5 11.7278 24.5 12.0877 24.2812 12.3065L22.2843 14.3034L24.2812 16.3004C24.5 16.5192 24.5 16.879 24.2812 17.0978L23.4839 17.8952C23.2651 18.1139 22.9052 18.1139 22.6865 17.8952L20.6895 15.8982L19.0948 17.5L21.0917 19.497C21.3105 19.7157 21.3105 20.0756 21.0917 20.2944L20.2944 21.0917C20.0756 21.3105 19.7157 21.3105 19.497 21.0917L17.5 19.0948L15.9052 20.6895L17.9022 22.6865C18.121 22.9052 18.121 23.2651 17.9022 23.4839L17.1048 24.2812C16.8861 24.5 16.5262 24.5 16.3075 24.2812L14.3105 22.2843L12.3135 24.2812C12.0948 24.5 11.7349 24.5 11.5161 24.2812L10.7188 23.4839C10.5 23.2651 10.5 22.9052 10.7188 22.6865L12.7157 20.6895L10.7188 18.6996C10.5 18.4808 10.5 18.121 10.7188 17.9022L11.5161 17.1048C11.7349 16.8861 12.0948 16.8861 12.3135 17.1048L14.3105 19.1018L15.9052 17.5071L13.9083 15.5101C13.6895 15.2913 13.6895 14.9315 13.9083 14.7127L14.7056 13.9153C14.9244 13.6966 15.2843 13.6966 15.503 13.9153L17.5 15.9123L19.0948 14.3175L17.0978 12.3206C16.879 12.1018 16.879 11.7419 17.0978 11.5232L17.8952 10.7258C18.1139 10.5071 18.4738 10.5071 18.6925 10.7258L20.6895 12.7228L22.6865 10.7117Z" fill="#151515"/>
</svg>
